<svg
                version="1.0"
                xmlns="http://www.w3.org/2000/svg"
                width="20px"
                height="20px"
                viewBox="0 0 700.000000 700.000000"
                preserveAspectRatio="xMidYMid meet"
              >
                <g
                  transform="translate(0.000000,700.000000) scale(0.100000,-0.100000)"
                  fill="#000000"
                  stroke="none"
                >
                  <path
                    d="M1910 6993 c-150 -49 -282 -157 -338 -275 l-30 -64 -4 -485 c-3 -548
-8 -518 76 -559 40 -19 50 -20 81 -10 19 6 47 23 63 38 29 27 29 29 37 182 4
85 10 300 14 477 l6 322 35 36 c73 76 -24 70 1145 73 1144 3 1161 2 1220 -49
70 -62 65 80 65 -1721 0 -1562 -1 -1625 -19 -1658 -10 -19 -35 -48 -55 -65
l-38 -30 -176 -3 -177 -3 3 105 c3 83 0 116 -14 153 -38 102 -98 176 -187 230
l-62 38 -585 3 c-601 3 -715 -2 -768 -35 -107 -67 -169 -145 -231 -290 -24
-54 -50 -115 -60 -136 l-17 -38 -28 22 c-51 40 -56 67 -56 316 0 125 -5 399
-11 608 l-12 380 -26 22 c-64 56 -145 50 -201 -14 l-32 -36 7 -626 7 -626 35
-72 c37 -77 122 -179 178 -213 40 -25 42 -35 16 -93 -20 -45 -48 -115 -106
-267 -19 -52 -40 -104 -45 -115 -6 -11 -22 -51 -36 -90 -26 -70 -26 -71 -20
-269 6 -167 11 -214 32 -295 14 -53 35 -130 45 -171 40 -149 71 -265 109 -405
12 -44 30 -111 40 -150 10 -38 37 -137 60 -220 46 -163 59 -211 89 -325 10
-41 36 -133 56 -205 20 -71 44 -159 54 -195 27 -97 45 -133 80 -163 l33 -27
788 0 788 0 31 26 c48 40 47 38 101 284 10 47 35 155 54 240 20 85 45 196 56
245 44 203 60 266 67 278 4 7 30 44 57 81 66 91 85 161 96 356 12 198 15 564
5 612 -7 34 -5 37 29 53 48 23 132 99 162 147 33 52 61 132 69 197 5 49 12 61
64 117 60 63 90 126 125 254 8 30 31 114 51 185 20 72 46 164 56 205 11 41 28
107 39 145 10 39 68 255 129 480 62 226 127 469 146 540 19 72 53 198 75 280
23 83 48 175 55 205 8 30 32 123 55 205 23 83 48 175 55 205 8 30 36 138 63
240 79 299 86 330 86 420 1 129 -48 235 -154 334 -71 66 -114 84 -385 157 -44
11 -109 29 -145 39 -36 10 -79 21 -96 25 -17 3 -53 14 -80 23 -46 17 -49 20
-61 69 -7 29 -29 80 -49 114 -64 108 -142 172 -266 215 l-68 24 -1117 -1
c-615 0 -1125 -3 -1133 -6z m2908 -759 c266 -71 283 -78 324 -121 33 -35 48
-73 48 -124 0 -34 -53 -251 -122 -504 -11 -38 -28 -101 -38 -140 -38 -143 -61
-231 -75 -280 -7 -27 -23 -84 -33 -125 -11 -41 -36 -136 -56 -210 -19 -74 -72
-270 -116 -435 -45 -165 -88 -322 -95 -350 -7 -27 -25 -95 -40 -150 -15 -55
-29 -110 -32 -123 -3 -12 -9 -25 -14 -28 -5 -3 -9 561 -9 1325 0 732 2 1331 6
1331 3 0 116 -30 252 -66z m-1343 -2778 c68 -29 96 -126 55 -193 -33 -55 -55
-60 -285 -67 -351 -11 -438 -41 -692 -238 -208 -160 -245 -207 -224 -280 13
-43 67 -93 111 -103 45 -10 98 20 270 155 153 120 228 161 325 179 77 14 593
14 671 0 85 -16 171 -62 320 -172 131 -97 164 -134 164 -186 0 -33 -25 -83
-53 -110 -31 -28 -103 -39 -138 -20 -13 7 -114 80 -224 162 -217 163 -273 194
-374 206 -143 17 -231 -12 -691 -231 -153 -73 -170 -90 -170 -168 0 -43 5 -56
33 -86 26 -29 42 -37 77 -40 49 -5 148 32 462 175 86 40 173 75 192 78 54 8
100 -4 158 -44 127 -86 440 -338 454 -364 22 -43 9 -36 -46 25 -100 108 -256
161 -408 138 -86 -14 -498 -149 -555 -182 -91 -54 -87 -171 7 -229 45 -28 59
-27 189 15 62 20 173 56 247 80 234 77 259 69 422 -141 152 -196 153 -199 151
-312 -1 -51 -7 -110 -13 -132 -29 -107 -158 -141 -235 -60 l-30 30 0 152 c0
174 -7 194 -76 221 -49 20 -70 20 -114 2 -44 -19 -64 -59 -81 -165 -18 -111
-18 -169 2 -244 40 -154 144 -262 294 -303 67 -19 70 -27 50 -109 -11 -42 -41
-181 -65 -300 -8 -38 -19 -86 -24 -105 -6 -19 -18 -71 -27 -115 -10 -44 -22
-86 -27 -93 -14 -18 -1250 -18 -1264 1 -11 13 -15 25 -44 135 -54 204 -65 246
-108 402 -23 85 -95 350 -116 425 -24 86 -54 197 -74 275 -57 217 -115 431
-129 475 -9 28 -17 99 -20 163 -4 117 1 144 58 277 17 40 36 87 105 265 20 52
84 213 141 357 57 145 104 266 104 271 0 27 62 101 101 120 43 22 50 22 577
22 441 0 539 -2 567 -14z m916 -494 c-18 -68 -37 -112 -48 -112 -10 0 -113 82
-113 90 0 4 18 13 40 20 21 7 58 26 82 41 24 16 46 29 50 29 3 0 -2 -30 -11
-68z"
                  ></path>
                  <path
                    d="M1606 5217 c-80 -45 -92 -136 -26 -201 27 -28 36 -31 91 -31 56 1 64
3 90 33 56 62 40 158 -34 202 -41 26 -73 25 -121 -3z"
                  ></path>
                </g>
              </svg>
              